#N canvas 820 130 302 306 12;
#X obj 72 117 netreceive -u -b;
#X obj 72 146 oscparse;
#X obj 113 243 print;
#X text 167 33 <- start here;
#X msg 97 76 listen 0;
#X obj 72 206 list trim;
#X msg 72 33 listen 6000;
#X obj 72 242 bng 30 250 50 0 empty empty empty 17 7 0 10 #ff0400 #dfdfdf
#000000;
#X listbox 72 177 20 0 0 0 - - - 0;
#X connect 0 0 1 0;
#X connect 1 0 8 0;
#X connect 4 0 0 0;
#X connect 5 0 2 0;
#X connect 5 0 7 0;
#X connect 6 0 0 0;
#X connect 8 0 5 0;
